Planet 51 (2009) R5 DVDRip XviD-MAX

Format                           : AVI
Format/Info                      : Audio Video Interleave
File size                        : 902 MiB
Duration                         : 1h 26mn
Overall bit rate                 : 1 459 Kbps
Writing application              : VirtualDubMod 1.5.10.2 (build 2542/release)
Writing library                  : VirtualDubMod build 2542/release
Original source form             : MAX TORRENTZ
Copyright                        : SIGISMUNT

Video
Format                           : xvid
Codec ID                         : xvid
Duration                         : 1h 26mn
Bit rate                         : 1 328 Kbps
Width                            : 720 pixels
Height                           : 320 pixels
Display aspect ratio             : 2.25:1
Frame rate                       : 25.000 fps
Resolution                       : 24 bits
Bits/(Pixel*Frame)               : 0.231
Stream size                      : 821 MiB (91%)

Audio
ID                               : 1
Format                           : MPEG Audio
Format version                   : Version 1
Format profile                   : Layer 3
Codec ID                         : 55
Codec ID/Hint                    : MP3
Duration                         : 1h 20mn
Bit rate mode                    : Constant
Bit rate                         : 128 Kbps
Channel(s)                       : 2 channels
Sampling rate                    : 44.1 KHz
Resolution                       : 16 bits
Stream size                      : 73.8 MiB (8%)
Alignment                        : Aligned on interleaves
Interleave, duration             : 28 ms (0.70 video frame)
Interleave, preload duration     : 26 ms 
http://www.imdb.com/title/tt0762125/

Screens: 
http://www.postimg.com/image/9000/8791.jpg 
http://www.postimg.com/image/9000/8792.jpg 
http://www.postimg.com/image/9000/8793.jpg 
http://www.postimg.com/image/9000/8794.jpg

ScreenCaps: 
http://www.postimg.com/image/9000/8795.jpg

Planet 51 (2009) R5 DVDRip XviD-MAX Torrent Free Download 
http://thepiratebay.org/user/extremezone/0/7
